HIERARCHY
ROOT Hips
{
  OFFSET 0.849866 78.6569 -0.536788
  CHANNELS 6 Xposition Yposition Zposition Zrotation Xrotation Yrotation
  JOINT Bip01_Pelvis
  {
    OFFSET 0 0 0
    CHANNELS 6 Xposition Yposition Zposition Zrotation Xrotation Yrotation
    JOINT BN_Tail_01
    {
      OFFSET -5.52397 -0.332285 0
      CHANNELS 6 Xposition Yposition Zposition Zrotation Xrotation Yrotation
      JOINT BN_Tail_02
      {
        OFFSET 6.48885 -2.032e-005 0
        CHANNELS 6 Xposition Yposition Zposition Zrotation Xrotation Yrotation
        JOINT BN_Tail_03
        {
          OFFSET 7.08759 1.016e-005 -0.00261112
          CHANNELS 6 Xposition Yposition Zposition Zrotation Xrotation Yrotation
          End Site
          {
            OFFSET 0 0 0
          }
        }
      }
    }
    JOINT Bip01_Spine
    {
      OFFSET 4.02227 0.398968 0
      CHANNELS 6 Xposition Yposition Zposition Zrotation Xrotation Yrotation
      JOINT BN_UpperArm_R_01
      {
        OFFSET 4.84413 -3.22857 -3.65581
        CHANNELS 6 Xposition Yposition Zposition Zrotation Xrotation Yrotation
        JOINT BN_Forearm_R_01
        {
          OFFSET 8.51614 0 0
          CHANNELS 6 Xposition Yposition Zposition Zrotation Xrotation Yrotation
          JOINT BN_hand_R_01
          {
            OFFSET 10.1924 0 0
            CHANNELS 6 Xposition Yposition Zposition Zrotation Xrotation Yrotation
            JOINT BN_Finger_R_02
            {
              OFFSET 14.5949 -1.43855 0.585079
              CHANNELS 6 Xposition Yposition Zposition Zrotation Xrotation Yrotation
              End Site
              {
                OFFSET 0 0 0
              }
            }
            JOINT BN_Finger_R_01
            {
              OFFSET 14.4623 0 0
              CHANNELS 6 Xposition Yposition Zposition Zrotation Xrotation Yrotation
              End Site
              {
                OFFSET 0 0 0
              }
            }
          }
        }
      }
      JOINT BN_UpperArm_L_01
      {
        OFFSET 4.84412 -3.22858 3.65557
        CHANNELS 6 Xposition Yposition Zposition Zrotation Xrotation Yrotation
        JOINT BN_Forearm_L_01
        {
          OFFSET 8.51611 0 0
          CHANNELS 6 Xposition Yposition Zposition Zrotation Xrotation Yrotation
          JOINT BN_hand_L_01
          {
            OFFSET 10.1924 0 0
            CHANNELS 6 Xposition Yposition Zposition Zrotation Xrotation Yrotation
            JOINT BN_Finger_L_01
            {
              OFFSET 14.4623 0 0
              CHANNELS 6 Xposition Yposition Zposition Zrotation Xrotation Yrotation
              End Site
              {
                OFFSET 0 0 0
              }
            }
            JOINT BN_Finger_L_02
            {
              OFFSET 14.5949 1.43855 0.585071
              CHANNELS 6 Xposition Yposition Zposition Zrotation Xrotation Yrotation
              End Site
              {
                OFFSET 0 0 0
              }
            }
          }
        }
      }
      JOINT Bip01_R_Thigh
      {
        OFFSET -4.03411 -0.254132 -3.45377
        CHANNELS 6 Xposition Yposition Zposition Zrotation Xrotation Yrotation
        JOINT Bip01_R_Calf
        {
          OFFSET 3.92618 0 0
          CHANNELS 6 Xposition Yposition Zposition Zrotation Xrotation Yrotation
          JOINT Bip01_R_HorseLink
          {
            OFFSET 6.12319 0 0
            CHANNELS 6 Xposition Yposition Zposition Zrotation Xrotation Yrotation
            JOINT Bip01_R_Foot
            {
              OFFSET 9.94776 0 0
              CHANNELS 6 Xposition Yposition Zposition Zrotation Xrotation Yrotation
              JOINT Bip01_R_Toe3
              {
                OFFSET 0.881252 -0.110953 0.0158496
                CHANNELS 6 Xposition Yposition Zposition Zrotation Xrotation Yrotation
                JOINT Bip01_R_Toe31
                {
                  OFFSET 2.32137 0 0
                  CHANNELS 6 Xposition Yposition Zposition Zrotation Xrotation Yrotation
                  JOINT Bip01_R_Toe32
                  {
                    OFFSET 1.63293 0 0
                    CHANNELS 6 Xposition Yposition Zposition Zrotation Xrotation Yrotation
                    JOINT Bip01_R_Toe3Nub
                    {
                      OFFSET 1.72131 0 0
                      CHANNELS 6 Xposition Yposition Zposition Zrotation Xrotation Yrotation
                      End Site
                      {
                        OFFSET 0 0 0
                      }
                    }
                  }
                }
              }
              JOINT Bip01_R_Toe2
              {
                OFFSET 0.994751 0.967285 -1.09428
                CHANNELS 6 Xposition Yposition Zposition Zrotation Xrotation Yrotation
                JOINT Bip01_R_Toe21
                {
                  OFFSET 2.20201 0 0
                  CHANNELS 6 Xposition Yposition Zposition Zrotation Xrotation Yrotation
                  JOINT Bip01_R_Toe22
                  {
                    OFFSET 1.84925 0 0
                    CHANNELS 6 Xposition Yposition Zposition Zrotation Xrotation Yrotation
                    JOINT Bip01_R_Toe2Nub
                    {
                      OFFSET 1.70976 0 0
                      CHANNELS 6 Xposition Yposition Zposition Zrotation Xrotation Yrotation
                      End Site
                      {
                        OFFSET 0 0 0
                      }
                    }
                  }
                }
              }
              JOINT Bip01_R_Toe1
              {
                OFFSET 1.3748 1.34027 -0.0712419
                CHANNELS 6 Xposition Yposition Zposition Zrotation Xrotation Yrotation
                JOINT Bip01_R_Toe11
                {
                  OFFSET 2.26122 0 0
                  CHANNELS 6 Xposition Yposition Zposition Zrotation Xrotation Yrotation
                  JOINT Bip01_R_Toe12
                  {
                    OFFSET 2.22215 0 0
                    CHANNELS 6 Xposition Yposition Zposition Zrotation Xrotation Yrotation
                    JOINT Bip01_R_Toe1Nub
                    {
                      OFFSET 1.61867 0 0
                      CHANNELS 6 Xposition Yposition Zposition Zrotation Xrotation Yrotation
                      End Site
                      {
                        OFFSET 0 0 0
                      }
                    }
                  }
                }
              }
              JOINT Bip01_R_Toe0
              {
                OFFSET 1.40695 0.687986 0.883783
                CHANNELS 6 Xposition Yposition Zposition Zrotation Xrotation Yrotation
                JOINT Bip01_R_Toe01
                {
                  OFFSET 2.26828 0 0
                  CHANNELS 6 Xposition Yposition Zposition Zrotation Xrotation Yrotation
                  JOINT Bip01_R_Toe02
                  {
                    OFFSET 2.09769 0 0
                    CHANNELS 6 Xposition Yposition Zposition Zrotation Xrotation Yrotation
                    JOINT Bip01_R_Toe0Nub
                    {
                      OFFSET 1.53753 0 0
                      CHANNELS 6 Xposition Yposition Zposition Zrotation Xrotation Yrotation
                      End Site
                      {
                        OFFSET 0 0 0
                      }
                    }
                  }
                }
              }
            }
          }
        }
      }
      JOINT Bip01_L_Thigh
      {
        OFFSET -4.03411 -0.254147 3.45377
        CHANNELS 6 Xposition Yposition Zposition Zrotation Xrotation Yrotation
        JOINT Bip01_L_Calf
        {
          OFFSET 3.92616 0 0
          CHANNELS 6 Xposition Yposition Zposition Zrotation Xrotation Yrotation
          JOINT Bip01_L_HorseLink
          {
            OFFSET 6.1232 0 0
            CHANNELS 6 Xposition Yposition Zposition Zrotation Xrotation Yrotation
            JOINT Bip01_L_Foot
            {
              OFFSET 9.94775 0 0
              CHANNELS 6 Xposition Yposition Zposition Zrotation Xrotation Yrotation
              JOINT Bip01_L_Toe3
              {
                OFFSET 0.881246 -0.110986 -0.0157582
                CHANNELS 6 Xposition Yposition Zposition Zrotation Xrotation Yrotation
                JOINT Bip01_L_Toe31
                {
                  OFFSET 2.32136 0 0
                  CHANNELS 6 Xposition Yposition Zposition Zrotation Xrotation Yrotation
                  JOINT Bip01_L_Toe32
                  {
                    OFFSET 1.63293 0 0
                    CHANNELS 6 Xposition Yposition Zposition Zrotation Xrotation Yrotation
                    JOINT Bip01_L_Toe3Nub
                    {
                      OFFSET 1.7213 0 0
                      CHANNELS 6 Xposition Yposition Zposition Zrotation Xrotation Yrotation
                      End Site
                      {
                        OFFSET 0 0 0
                      }
                    }
                  }
                }
              }
              JOINT Bip01_L_Toe2
              {
                OFFSET 0.994649 0.967162 1.09447
                CHANNELS 6 Xposition Yposition Zposition Zrotation Xrotation Yrotation
                JOINT Bip01_L_Toe21
                {
                  OFFSET 2.202 0 0
                  CHANNELS 6 Xposition Yposition Zposition Zrotation Xrotation Yrotation
                  JOINT Bip01_L_Toe22
                  {
                    OFFSET 1.84926 0 0
                    CHANNELS 6 Xposition Yposition Zposition Zrotation Xrotation Yrotation
                    JOINT Bip01_L_Toe2Nub
                    {
                      OFFSET 1.70976 0 0
                      CHANNELS 6 Xposition Yposition Zposition Zrotation Xrotation Yrotation
                      End Site
                      {
                        OFFSET 0 0 0
                      }
                    }
                  }
                }
              }
              JOINT Bip01_L_Toe1
              {
                OFFSET 1.37483 1.34021 0.0715086
                CHANNELS 6 Xposition Yposition Zposition Zrotation Xrotation Yrotation
                JOINT Bip01_L_Toe11
                {
                  OFFSET 2.26124 0 0
                  CHANNELS 6 Xposition Yposition Zposition Zrotation Xrotation Yrotation
                  JOINT Bip01_L_Toe12
                  {
                    OFFSET 2.22214 0 0
                    CHANNELS 6 Xposition Yposition Zposition Zrotation Xrotation Yrotation
                    JOINT Bip01_L_Toe1Nub
                    {
                      OFFSET 1.61867 0 0
                      CHANNELS 6 Xposition Yposition Zposition Zrotation Xrotation Yrotation
                      End Site
                      {
                        OFFSET 0 0 0
                      }
                    }
                  }
                }
              }
              JOINT Bip01_L_Toe0
              {
                OFFSET 1.40707 0.688009 -0.883564
                CHANNELS 6 Xposition Yposition Zposition Zrotation Xrotation Yrotation
                JOINT Bip01_L_Toe01
                {
                  OFFSET 2.26828 0 0
                  CHANNELS 6 Xposition Yposition Zposition Zrotation Xrotation Yrotation
                  JOINT Bip01_L_Toe02
                  {
                    OFFSET 2.0977 0 0
                    CHANNELS 6 Xposition Yposition Zposition Zrotation Xrotation Yrotation
                    JOINT Bip01_L_Toe0Nub
                    {
                      OFFSET 1.53752 0 0
                      CHANNELS 6 Xposition Yposition Zposition Zrotation Xrotation Yrotation
                      End Site
                      {
                        OFFSET 0 0 0
                      }
                    }
                  }
                }
              }
            }
          }
        }
      }
      JOINT Bip01_Spine1
      {
        OFFSET 4.90674 -0.00437896 0
        CHANNELS 6 Xposition Yposition Zposition Zrotation Xrotation Yrotation
        JOINT Bip01_Neck
        {
          OFFSET 5.56447 -1.28357 0
          CHANNELS 6 Xposition Yposition Zposition Zrotation Xrotation Yrotation
          JOINT Bip01_Neck1
          {
            OFFSET 2.79308 -0.00219964 0
            CHANNELS 6 Xposition Yposition Zposition Zrotation Xrotation Yrotation
            JOINT Bip01_Head
            {
              OFFSET 2.79272 0 0
              CHANNELS 6 Xposition Yposition Zposition Zrotation Xrotation Yrotation
              JOINT BN_Mouth_01
              {
                OFFSET 4.19089 0.0665938 0
                CHANNELS 6 Xposition Yposition Zposition Zrotation Xrotation Yrotation
                End Site
                {
                  OFFSET 0 0 0
                }
              }
              JOINT Bip01_HeadNub
              {
                OFFSET 6.95118 0 0
                CHANNELS 6 Xposition Yposition Zposition Zrotation Xrotation Yrotation
                End Site
                {
                  OFFSET 0 0 0
                }
              }
            }
          }
        }
      }
    }
  }
}
MOTION
Frames:	3
Frame Time:	0.0333333
0.858891 99.8838 2.18199e-007 5.3337 -89.9999 96.0781 0 7.27596e-012 0 -90 13.5172 -90 -5.52397 -0.332268 -1.17961e-016 -23.8004 0.000183106 -179.975 6.48885 1.42109e-014 3.72529e-009 16.0311 4.85352e-006 -1.93938e-005 7.08758 -7.6294e-006 -1.86265e-009 -4.66841 -1.78743e-005 6.2966e-006 3.93615 0.909141 -4.06354e-005 -15.9743 0.0103948 3.48027 4.84413 -3.22856 -3.65582 -96.4104 -7.72244 26.8144 8.51611 0.000261307 -1.91847e-013 58.9887 -6.36987 -16.0428 10.1924 -3.81471e-006 3.8147e-006 -41.7808 -0.790044 28.9403 14.5949 -1.43856 0.585073 -48.6563 3.56812 32.4716 14.4623 -5.72206e-006 -7.62939e-006 -8.18688 12.0664 35.3897 4.36875 -3.22233 4.21719 84.511 -13.4868 -153.335 8.5161 -0.000267029 -7.62939e-006 -57.9895 5.83267 -15.1855 10.1924 6.3949e-014 5.72204e-006 37.8904 -1.52199 30.0806 14.5949 1.43856 0.585086 27.3671 -20.3579 31.0456 14.4623 -7.34605e-006 1.85007e-005 35.5913 11.9617 46.0187 -3.31941 -1.95836 -3.65987 -81.3442 -1.16962 176.226 3.92618 -1.90735e-006 -9.53675e-007 -87.8601 -1.0448e-005 -1.69533e-005 6.1232 -1.42109e-014 -4.44089e-015 116.152 -2.80778e-006 -9.19577e-006 9.94775 1.42109e-014 8.88179e-016 -78.2587 1.26358 4.97702 0.881248 -0.110963 0.0158141 174.881 -4.26266 -178.472 2.32137 3.81473e-006 -2.66454e-015 81.3832 8.80275e-006 -1.88425e-006 1.63293 5.68443e-014 -2.38419e-006 -87.5442 -6.4199e-006 1.07438e-005 1.7213 3.81479e-006 -4.76837e-007 -1.98027e-006 9.89615e-006 3.64451e-007 0.994696 0.967276 -1.09432 91.889 -0.025535 31.2223 2.20199 -7.62951e-006 9.53674e-007 -25.1537 -3.18846e-006 7.91527e-006 1.84924 7.10555e-015 -4.76837e-007 -35.3054 -1.72823e-005 -9.78683e-006 1.70975 -7.62955e-006 -4.76836e-007 -1.74326e-006 1.29999e-006 1.01569e-005 1.3748 1.34026 -0.0713031 95.174 -0.0935387 -1.03424 2.26122 -7.62951e-006 2.38419e-007 -24.8162 -2.03891e-005 1.95551e-006 2.22212 3.81476e-006 -2.86102e-006 -38.5093 -1.08516e-005 4.02719e-006 1.61866 0 4.44089e-016 2.62661e-007 9.78704e-006 -1.76685e-005 1.40697 0.68798 0.883719 89.8508 -0.77269 -35.0813 2.26828 7.62951e-006 4.47642e-013 -15.2442 -2.13871e-005 1.91568e-006 2.09769 7.62952e-006 2.86102e-006 -61.0258 2.37734e-005 2.56073e-006 1.53752 7.62957e-006 9.53674e-007 -1.06451e-005 1.00148e-005 7.05215e-006 -3.73572 -1.95621 3.23511 -46.6353 11.2266 -177.092 3.92618 7.10544e-015 1.77636e-015 -59.5407 -1.75668e-005 -9.79563e-006 6.12319 0 -2.86102e-006 120.316 1.80173e-005 1.0104e-005 9.94775 -7.62943e-006 2.13163e-014 -80.1813 -1.18459 -9.33175 0.881232 -0.110963 -0.0158143 140.528 4.38229 -178.859 2.32136 -4.76842e-007 7.15256e-007 44.4439 -7.5873e-006 -1.92351e-005 1.63293 -3.81475e-006 -2.38419e-007 -43.5294 -2.917e-006 5.60243e-006 1.7213 4.76846e-007 4.76837e-007 -179.96 -1.74053e-006 -1.50119e-007 0.994702 0.967278 1.09432 46.1873 22.2169 -32.8902 2.202 -3.81474e-006 -3.81469e-006 -18.7171 1.27909e-006 -7.98473e-007 1.84925 -3.81475e-006 3.81469e-006 -35.3054 -5.33374e-006 -1.68367e-006 1.70977 -1.90738e-006 7.62939e-006 179.96 -6.54409e-006 -1.11887e-005 1.3748 1.34026 0.0713022 48.7892 -1.46404 2.26845 2.26122 -7.62948e-006 -4.76837e-007 -34.3398 1.09709e-005 -1.34489e-005 2.22213 3.55276e-015 -4.76837e-007 -38.5093 1.69682e-006 1.48677e-005 1.61868 5.72215e-006 -2.38418e-007 179.96 -1.00563e-005 1.78851e-005 1.40698 0.687964 -0.883722 67.0352 -18.824 40.2882 2.26828 1.90737e-006 7.62938e-006 -16.3657 6.07987e-006 -1.63983e-005 2.0977 -3.81475e-006 3.81469e-006 -61.0258 2.27747e-005 8.93264e-007 1.53753 -1.05163e-012 -1.14441e-005 179.96 -1.05323e-005 1.64408e-005 4.90711 -0.00430298 -0.000375748 4.66858 -1.79226 -6.20851 5.56426 -1.28359 0.000252723 9.25896 -2.57491 5.31692 2.79365 -0.00200653 0.00014925 5.4365 -2.00663 -3.08143 2.79272 -7.6294e-006 3.55271e-015 42.1469 3.16563 0.329846 4.19085 0.0666123 2.0265e-005 -177.831 -0.0469513 -179.999 6.95117 1.52588e-005 -8.9706e-014 4.44822e-007 1.00055e-005 1.49041e-007 
0.867728 100.062 2.23121e-007 17.0587 -89.9999 106.574 0 7.27596e-012 0 -90 13.6378 -90 -5.52397 -0.332268 -1.14492e-016 -21.8423 -0.00294493 -179.965 6.48885 0 3.72529e-009 17.435 -3.8086e-006 -4.55722e-005 7.08758 -7.6294e-006 -1.86265e-009 -8.542 -1.86306e-005 7.54817e-006 3.93419 0.917456 -4.06369e-005 -16.2885 0.0133889 3.48671 4.84413 -3.22856 -3.65582 -94.077 -4.37544 20.6907 8.51611 0.000261307 -5.25802e-013 58.7039 -6.77331 -17.7144 10.1924 -3.81471e-006 3.8147e-006 -35.5442 2.21452 21.142 14.5949 -1.43856 0.585073 -49.1029 7.94372 33.2931 14.4623 -5.72206e-006 -7.62939e-006 -9.6873 17.0444 38.0889 4.36888 -3.22346 4.21609 86.3133 -10.8325 -159.53 8.5161 -0.000267029 -7.62939e-006 -58.73 6.40246 -17.0874 10.1924 3.55272e-014 5.72204e-006 33.6347 -2.8297 21.8455 14.5949 1.43856 0.585086 26.8802 -24.8524 30.4158 14.4623 -2.07021e-006 3.32456e-006 35.7164 9.30901 46.4791 -3.30448 -1.98543 -3.65876 -79.5626 -1.40634 175.482 3.92618 -1.90735e-006 -9.53675e-007 -86.6391 1.64069e-005 -1.83259e-005 6.1232 0 -2.66454e-015 112.749 -3.69032e-006 -8.74275e-006 9.94775 1.42109e-014 8.88179e-016 -79.8389 1.04928 5.6034 0.881248 -0.110963 0.0158141 176.789 -4.20961 -178.331 2.32137 3.81473e-006 0 81.3832 8.65915e-006 -1.83957e-006 1.63293 8.52665e-014 -2.38419e-006 -87.5442 -6.34481e-006 1.08803e-005 1.7213 3.81479e-006 -4.76837e-007 -1.98027e-006 9.89615e-006 3.64451e-007 0.994696 0.967276 -1.09432 89.8942 -0.965974 31.2886 2.20199 -7.62951e-006 9.53674e-007 -26.1159 -3.26737e-006 7.67953e-006 1.84924 0 -4.76837e-007 -35.3054 -1.77129e-005 -9.93852e-006 1.70975 -7.62955e-006 -4.76836e-007 -1.74326e-006 1.29999e-006 1.01569e-005 1.3748 1.34026 -0.0713031 92.2257 -0.0703622 -1.05501 2.26122 -7.62951e-006 2.38418e-007 -23.6736 -2.02543e-005 2.39131e-006 2.22212 3.81476e-006 -2.86102e-006 -38.5093 -1.07694e-005 4.02188e-006 1.61866 4.44098e-016 2.22045e-015 2.62662e-007 9.78704e-006 -1.76685e-005 1.40697 0.68798 0.883719 87.8744 0.270961 -35.1807 2.26828 7.62951e-006 4.93827e-013 -13.3984 -2.21419e-005 7.94309e-006 2.09769 7.62952e-006 2.86102e-006 -61.0258 -3.66105e-008 1.57847e-005 1.53752 7.62957e-006 9.53674e-007 -1.06451e-005 1.00148e-005 7.05215e-006 -3.72075 -1.98267 3.23622 -44.1942 11.196 -177.591 3.92618 0 -1.77636e-015 -58.5994 -1.5696e-005 -1.07315e-005 6.12319 1.42109e-014 -2.86102e-006 119.488 1.78685e-005 1.03677e-005 9.94775 -7.62943e-006 2.30926e-014 -81.1145 -0.850364 -9.33274 0.881232 -0.110963 -0.0158143 141.734 4.40518 -178.952 2.32136 -4.76842e-007 7.15256e-007 44.4439 -7.62292e-006 -1.92214e-005 1.63293 -3.81475e-006 -2.38419e-007 -43.5294 -2.88332e-006 5.61733e-006 1.7213 4.76846e-007 4.76837e-007 -179.96 -1.74046e-006 -1.50131e-007 0.994702 0.967278 1.09432 42.116 23.4167 -31.8656 2.202 -3.81474e-006 -3.81469e-006 -21.3688 -2.62707e-006 7.72046e-006 1.84925 -3.81475e-006 3.81469e-006 -35.3054 -1.00649e-005 6.37583e-006 1.70977 -1.90738e-006 7.62939e-006 179.96 -6.54468e-006 -1.11885e-005 1.3748 1.34026 0.0713022 46.5172 -1.50912 2.23393 2.26122 -7.62948e-006 -4.76837e-007 -37.8105 5.85746e-008 2.25958e-006 2.22213 0 -4.76837e-007 -38.5093 1.52722e-006 1.48709e-005 1.61868 5.72215e-006 -2.38418e-007 179.96 -1.00564e-005 1.7885e-005 1.40698 0.687964 -0.883722 66.0609 -19.5997 39.9675 2.26828 1.90737e-006 7.62938e-006 -18.8029 1.15591e-006 7.83399e-007 2.0977 -3.81475e-006 3.81469e-006 -61.0258 2.26634e-005 9.20581e-007 1.53753 -1.00189e-012 -1.14441e-005 179.96 -1.05316e-005 1.64408e-005 4.90711 -0.00430298 -0.000375748 3.81103 -1.59566 -6.1932 5.56426 -1.28359 0.000252723 9.42363 -2.60584 5.35384 2.79365 -0.00200653 0.00014925 4.97385 -2.0422 -3.1388 2.79272 -7.6294e-006 0 40.4643 3.03328 0.308864 4.19085 0.0666123 2.0265e-005 -177.848 -0.0406647 -179.999 6.95117 1.52588e-005 -8.61533e-014 4.44822e-007 1.00055e-005 1.49041e-007 
0.876943 100.116 2.2482e-007 24.4214 -89.9999 112.485 0 7.27596e-012 0 -89.9999 13.2717 -90 -5.52397 -0.332268 -2.74954e-016 -19.9222 -0.00375366 -179.959 6.48885 1.42109e-014 3.72529e-009 16.7591 4.60714e-006 -1.9454e-005 7.08758 -7.6294e-006 -1.86265e-009 -11.1275 -1.88375e-005 6.11582e-006 3.93996 0.892283 -4.0635e-005 -16.9474 0.0201272 3.50087 4.84413 -3.22856 -3.65582 -91.6526 -2.27581 16.9152 8.51611 0.000261307 -6.25278e-013 58.5795 -6.89478 -18.4774 10.1924 -3.81471e-006 3.8147e-006 -29.7974 3.56322 13.6825 14.5949 -1.43856 0.585073 -49.3071 9.65659 33.6238 14.4623 -5.72206e-006 -7.62939e-006 -10.3977 18.9352 39.2106 4.36888 -3.22385 4.21594 88.3342 -9.18495 -163.217 8.5161 -0.000267029 -7.62939e-006 -58.5796 6.89478 -18.4774 10.1924 1.42109e-014 5.72204e-006 29.7974 -3.56324 13.6825 14.5949 1.43856 0.58508 21.846 -24.7993 25.2731 14.4623 -2.11702e-006 7.69904e-007 39.2819 6.63201 42.4526 -3.29431 -2.00406 -3.65775 -77.8586 -1.65777 174.79 3.92618 -1.90735e-006 -9.53675e-007 -85.2733 1.59684e-005 -1.87129e-005 6.1232 0 -1.77636e-015 109.473 -1.92414e-006 -9.38179e-006 9.94775 3.55273e-014 3.55271e-015 -81.2688 0.769166 6.14166 0.881248 -0.110963 0.0158141 178.564 -4.15603 -178.201 2.32137 3.81473e-006 -2.66454e-015 81.3832 -1.84911e-005 -5.88491e-006 1.63292 5.68443e-014 -2.38419e-006 -87.5442 -6.26815e-006 1.10113e-005 1.7213 3.81479e-006 -4.76837e-007 -1.98027e-006 9.89615e-006 3.64451e-007 0.994696 0.967276 -1.09432 88.038 -1.84275 31.3212 2.20199 -7.62951e-006 9.53674e-007 -27.0115 -1.20619e-006 3.25773e-006 1.84924 -7.10555e-015 -4.76837e-007 -35.3054 -1.81108e-005 -1.00751e-005 1.70975 -7.62955e-006 -4.76836e-007 -1.74326e-006 1.29999e-006 1.01569e-005 1.3748 1.34026 -0.0713031 89.4818 -0.0478767 -1.07325 2.26122 -7.62951e-006 2.38418e-007 -22.6102 -9.60145e-006 -2.24285e-005 2.22212 3.81476e-006 -2.86102e-006 -38.5093 -1.07037e-005 4.00577e-006 1.61866 -1.77639e-015 3.10863e-015 2.62662e-007 9.78704e-006 -1.76685e-005 1.40697 0.68798 0.883719 86.0362 1.24478 -35.2413 2.26828 7.62951e-006 5.18696e-013 -11.6806 -1.96701e-005 -2.36808e-007 2.09769 7.62952e-006 2.86102e-006 -61.0258 2.89452e-008 1.57611e-005 1.53752 7.62957e-006 9.53674e-007 -1.06451e-005 1.00148e-005 7.05215e-006 -3.7106 -1.99993 3.23723 -43.0787 11.0155 -178.055 3.92618 -7.10544e-015 0 -58.0366 -1.37015e-005 -1.18816e-005 6.12319 -1.42109e-014 -2.86102e-006 119.226 1.78055e-005 1.04549e-005 9.94775 -7.62943e-006 1.77636e-014 -80.0584 -1.21507 -9.11696 0.881232 -0.110963 -0.0158143 142.153 4.41281 -178.984 2.32136 -4.76842e-007 7.15256e-007 44.4439 -7.63658e-006 -1.91972e-005 1.63293 -3.81475e-006 -2.38419e-007 -43.5294 -2.85509e-006 5.60971e-006 1.7213 4.76846e-007 4.76837e-007 -179.96 -1.74053e-006 -1.50156e-007 0.994702 0.967278 1.09432 40.6913 23.8164 -31.4871 2.202 -3.81474e-006 -3.81469e-006 -22.2877 -1.48842e-007 1.08197e-006 1.84925 -3.81475e-006 3.81469e-006 -35.3054 -4.21715e-006 -1.30288e-006 1.70977 -1.90738e-006 7.62939e-006 179.96 -6.54483e-006 -1.11884e-005 1.3748 1.34026 0.0713022 45.73 -1.52443 2.22154 2.26122 -7.62948e-006 -4.76837e-007 -39.0131 9.67991e-007 1.03109e-006 2.22213 -7.10553e-015 -4.76837e-007 -38.5093 1.51638e-006 1.48918e-005 1.61868 5.72215e-006 -2.38418e-007 179.96 -1.00565e-005 1.7885e-005 1.40698 0.687964 -0.883722 65.721 -19.8672 39.8527 2.26828 1.90737e-006 7.62938e-006 -19.6475 7.17897e-006 -1.59152e-005 2.0977 -3.81475e-006 3.81469e-006 -61.0258 2.25999e-005 8.4818e-007 1.53753 -9.94782e-013 -1.14441e-005 179.96 -1.05315e-005 1.64407e-005 4.90711 -0.00430298 -0.000375748 2.88923 -1.3749 -6.12599 5.56426 -1.28359 0.000252723 9.15808 -2.647 5.39801 2.79365 -0.00200653 0.00014925 3.40618 -2.07852 -3.21469 2.79272 -7.6294e-006 0 39.0859 2.86616 0.162691 4.19085 0.0666123 2.02651e-005 -177.863 -0.0651551 -179.999 6.95117 1.52588e-005 -8.08242e-014 4.44822e-007 1.00055e-005 1.49041e-007 
